<svg width="25" height="24" viewBox="0 0 25 24" fill="none" xmlns="http://www.w3.org/2000/svg">
<path d="M4.36455 20.4406L4.36454 20.4406C3.8841 19.9436 3.6154 19.2747 3.47577 18.2005C3.33449 17.1135 3.3335 15.6891 3.3335 13.725V12.2039C3.3335 11.0504 3.334 10.2196 3.3962 9.55765C3.45745 8.90583 3.57593 8.45627 3.79129 8.06281C4.0062 7.6702 4.31629 7.33582 4.82241 6.94822C5.33759 6.55368 6.02446 6.12674 6.98119 5.53296L6.71753 5.10813L6.98119 5.53296L8.98119 4.2917C9.99259 3.664 10.7194 3.21364 11.3307 2.91637C11.9318 2.62407 12.3823 2.5 12.8335 2.5C13.2847 2.5 13.7352 2.62407 14.3363 2.91637C14.9476 3.21364 15.6744 3.664 16.6858 4.2917L18.6858 5.53295C19.6426 6.12673 20.3294 6.55368 20.8446 6.94821C21.3507 7.33581 21.6608 7.67019 21.8757 8.06281C22.0911 8.45627 22.2095 8.90583 22.2708 9.55765C22.333 10.2196 22.3335 11.0504 22.3335 12.2039V13.725C22.3335 15.6891 22.3325 17.1135 22.1912 18.2005C22.0516 19.2747 21.7829 19.9436 21.3024 20.4406L21.3024 20.4406C20.8243 20.9352 20.1844 21.2099 19.1537 21.3533C18.1069 21.4989 16.7337 21.5 14.8335 21.5H10.8335C8.93327 21.5 7.56011 21.4989 6.51328 21.3533C5.48263 21.2099 4.84271 20.9352 4.36455 20.4406ZM9.8335 16.75C9.14314 16.75 8.5835 17.3097 8.5835 18C8.5835 18.6903 9.14314 19.25 9.8335 19.25H15.8335C16.5238 19.25 17.0835 18.6903 17.0835 18C17.0835 17.3097 16.5238 16.75 15.8335 16.75H9.8335Z" fill="#11446D" stroke="#11446D"/>
</svg>
