<svg width="25" height="24" viewBox="0 0 25 24" fill="none" xmlns="http://www.w3.org/2000/svg">
<path d="M12.5002 16C6.74021 16 5.71983 10.2595 5.53907 5.70647C5.48879 4.43998 5.46365 3.80673 5.93937 3.22083C6.41508 2.63494 6.98445 2.53887 8.12318 2.34674C9.24724 2.15709 10.7166 2 12.5002 2C14.2837 2 15.7531 2.15709 16.8771 2.34674C18.0159 2.53887 18.5852 2.63494 19.0609 3.22083C19.5367 3.80673 19.5115 4.43998 19.4612 5.70647C19.2805 10.2595 18.2601 16 12.5002 16Z" stroke="#60829D" stroke-width="1.5"/>
<path d="M12.5 16V19" stroke="#60829D" stroke-width="1.5" stroke-linecap="round"/>
<path d="M16 22H9L9.33922 20.3039C9.43271 19.8365 9.84312 19.5 10.3198 19.5H14.6802C15.1569 19.5 15.5673 19.8365 15.6608 20.3039L16 22Z" stroke="#60829D" stroke-width="1.5" stroke-linecap="round" stroke-linejoin="round"/>
<path d="M19.5 5L20.4486 5.31621C21.4387 5.64623 21.9337 5.81124 22.2168 6.20408C22.5 6.59692 22.5 7.11873 22.4999 8.16234V8.23487C22.4999 9.09561 22.4999 9.52598 22.2927 9.87809C22.0855 10.2302 21.7093 10.4392 20.9569 10.8572L18 12.5" stroke="#60829D" stroke-width="1.5"/>
<path d="M5.49994 5L4.55132 5.31621C3.56126 5.64623 3.06623 5.81124 2.7831 6.20408C2.49996 6.59692 2.49997 7.11873 2.5 8.16234V8.23487C2.50003 9.09561 2.50004 9.52598 2.70723 9.87809C2.91441 10.2302 3.29063 10.4392 4.04305 10.8572L6.99994 12.5" stroke="#60829D" stroke-width="1.5"/>
<path d="M11.6459 6.02251C12.0259 5.34084 12.2159 5 12.5 5C12.7841 5 12.9741 5.34084 13.3541 6.02251L13.4524 6.19887C13.5603 6.39258 13.6143 6.48944 13.6985 6.55334C13.7827 6.61725 13.8875 6.64097 14.0972 6.68841L14.2881 6.73161C15.026 6.89857 15.395 6.98205 15.4828 7.26432C15.5706 7.54659 15.319 7.84072 14.816 8.42898L14.6858 8.58117C14.5429 8.74833 14.4714 8.83191 14.4392 8.93531C14.4071 9.03872 14.4179 9.15023 14.4395 9.37327L14.4592 9.57632C14.5352 10.3612 14.5733 10.7536 14.3435 10.9281C14.1136 11.1025 13.7682 10.9435 13.0773 10.6254L12.8986 10.5431C12.7022 10.4527 12.6041 10.4075 12.5 10.4075C12.3959 10.4075 12.2978 10.4527 12.1014 10.5431L11.9227 10.6254C11.2318 10.9435 10.8864 11.1025 10.6565 10.9281C10.4267 10.7536 10.4648 10.3612 10.5408 9.57632L10.5605 9.37327C10.5821 9.15023 10.5929 9.03872 10.5608 8.93531C10.5286 8.83191 10.4571 8.74833 10.3142 8.58117L10.184 8.42898C9.68097 7.84072 9.42945 7.54659 9.51723 7.26432C9.60501 6.98205 9.97396 6.89857 10.7119 6.73161L10.9028 6.68841C11.1125 6.64097 11.2173 6.61725 11.3015 6.55334C11.3857 6.48944 11.4397 6.39258 11.5476 6.19887L11.6459 6.02251Z" stroke="#60829D" stroke-width="1.5"/>
<path d="M18.5 22H6.5" stroke="#60829D" stroke-width="1.5" stroke-linecap="round"/>
</svg>
