<svg width="25" height="24" viewBox="0 0 25 24" fill="none" xmlns="http://www.w3.org/2000/svg">
<path d="M8.16699 6C8.16699 7.06087 8.58842 8.07828 9.33856 8.82843C10.0887 9.57857 11.1061 10 12.167 10C13.2279 10 14.2453 9.57857 14.9954 8.82843C15.7456 8.07828 16.167 7.06087 16.167 6C16.167 4.93913 15.7456 3.92172 14.9954 3.17157C14.2453 2.42143 13.2279 2 12.167 2C11.1061 2 10.0887 2.42143 9.33856 3.17157C8.58842 3.92172 8.16699 4.93913 8.16699 6Z" stroke="#60829D" stroke-width="1.5"/>
<path d="M20.167 17.5C20.167 19.9853 20.167 22 12.167 22C4.16699 22 4.16699 19.9853 4.16699 17.5C4.16699 15.0147 7.74871 13 12.167 13C16.5853 13 20.167 15.0147 20.167 17.5Z" stroke="#60829D" stroke-width="1.5"/>
</svg>
